<svg width="61" height="47" fill="none" xmlns="http://www.w3.org/2000/svg"><path fill-rule="evenodd" clip-rule="evenodd" d="M0 9.852c0-2.407.96-4.72 2.672-6.43A9.178 9.178 0 0 1 9.125.77h42.24c2.428 0 4.742.958 6.454 2.65a9.06 9.06 0 0 1 2.672 6.43v18.67c0 2.407-.96 4.72-2.672 6.411a9.098 9.098 0 0 1-6.453 2.651H9.126a9.177 9.177 0 0 1-6.454-2.65A9.015 9.015 0 0 1 0 28.52V9.851Z" fill="#FC5A5A"/><path fill-rule="evenodd" clip-rule="evenodd" d="M55.336 31.19s-4.723 9.57-7.075 14.326a1.555 1.555 0 0 1-1.336.865 1.522 1.522 0 0 1-1.392-.79c-2.634-4.681-7.959-14.157-7.959-14.157l17.762-.245Z" fill="#FC5A5A"/><path fill-rule="evenodd" clip-rule="evenodd" d="M18.344 11.73c2.314 0 4.196 1.936 4.196 4.324s-1.881 4.324-4.196 4.324c-2.314 0-4.196-1.936-4.196-4.324s1.882-4.324 4.196-4.324Z" fill="#fff"/><path fill-rule="evenodd" clip-rule="evenodd" d="M9.087 27.185c.96-11.713 18.12-10.34 17.987.17-6.096-.076-17.987-.17-17.987-.17Z" fill="#fff"/><path d="M41.789 25.42v-1.467h-5.607v-.038l.997-.959c2.634-2.632 4.309-4.568 4.309-6.975 0-1.861-1.129-3.779-3.82-3.779a5.383 5.383 0 0 0-3.537 1.316l.546 1.241c.583-.508 1.524-1.09 2.653-1.09 1.862 0 2.483 1.222 2.483 2.538-.019 1.955-1.467 3.628-4.647 6.787L33.83 24.33v1.072h7.959v.018Zm1.824-.659c.621.414 1.844.884 3.255.884 2.992 0 4.554-1.824 4.554-3.892 0-1.823-1.242-3.027-2.785-3.346v-.038c1.543-.583 2.314-1.71 2.314-3.065 0-1.579-1.11-3.102-3.575-3.102-1.354 0-2.615.508-3.273.997l.451 1.278c.546-.395 1.505-.865 2.502-.865 1.562 0 2.183.921 2.183 1.956 0 1.541-1.562 2.2-2.785 2.2h-.94v1.315h.94c1.637 0 3.218.771 3.237 2.595.018 1.072-.659 2.52-2.823 2.52-1.166 0-2.295-.508-2.766-.828l-.489 1.391Z" fill="#fff"/></svg>