<svg width="398" height="397" fill="none" xmlns="http://www.w3.org/2000/svg"><rect width="195.33" height="209.432" rx="3" transform="matrix(-1 0 0 1 389.337 13.133)" fill="#fff"/><path d="M194.007 13.133v209.432h195.33" stroke="#1E212C" stroke-width="1.5"/><path fill="#00F0B5" d="M335.602 6.493h-87.861V21.94h87.861z"/><path d="M291.671 12.796a5.955 5.955 0 0 1-5.96-5.95 5.955 5.955 0 0 1 5.96-5.951 5.956 5.956 0 0 1 5.961 5.95 5.956 5.956 0 0 1-5.961 5.95Z" fill="#00F0B5"/><path fill="#D7DADD" d="M335.602 6.493h-87.861V21.94h87.861z"/><path d="M247.741 6.492V21.94h87.861" stroke="#1E212C" stroke-width="1.5"/><path d="M291.671 12.796a5.955 5.955 0 0 1-5.96-5.95 5.955 5.955 0 0 1 5.96-5.951 5.956 5.956 0 0 1 5.961 5.95 5.956 5.956 0 0 1-5.961 5.95Z" fill="#D7DADD"/><path d="M291.671 222.564v166.139m105.72 0H185.952" stroke="#fff" stroke-width="1.5"/><path d="M22.726 380.291V367.5l11.828 10.823 3.942-33.946 31.046 22.139 3.942-14.759 10.841 10.823v-17.711l13.306 15.743 11.827-35.422 14.784 36.431 21.683-27.083 16.262 36.898v-17.712l9.363 17.22 6.407-23.123 17.74 27.55 27.104-33.946 8.377 33.454 7.885-9.347 5.914 23.171H17.305l-1.97-8.904 7.391.492Z" fill="#00F0B5"/><path d="M257.812 388.704H2.5" stroke="#fff" stroke-width="1.5"/><path d="m81.921 152.4 56.125-3.684 14.535 57.232 33.371 181.607H140.53l5.29-9.464L81.921 152.4Z" fill="#D7DADD"/><path d="m74.618 377.536-2.76-103.34 44.165 8.268-10.254 105.091H68.023l6.595-10.019Z" fill="#B3B7BC"/><path d="m88.156 277.247 27.867 5.217-1.23 12.605c-23.19-3.123-39.16-9.34-39.16-9.34l12.523-8.482Zm55.36-37.497s7.026 2.163 16.323 5.693l8.98 48.873c-16.371 2.982-32.313 2.972-46.251 1.646l-9.984-35.261 30.932-20.951Z" fill="#1E212C"/><path d="m143.515 153.527 55.273 114.423s-65.555 34.444-130.765 15.844V165.303l75.492-11.776Z" fill="#00F0B5"/><path d="M122.95 39.454v8.488c0 6.564-4.488 12.28-10.873 13.846l-13.53 3.32V31.92l11.25-2.761a10.633 10.633 0 0 1 9.086 1.952 10.596 10.596 0 0 1 4.067 8.343Z" fill="#D7DADD"/><path d="M122.95 47.942c0 6.564-4.488 12.28-10.873 13.846l-13.53 3.32" stroke="#1E212C" stroke-width="1.5"/><path d="M109.165 46.258a.652.652 0 1 1-.002-1.304.652.652 0 0 1 .002 1.304Zm10.022 0a.652.652 0 1 1 0-1.304.652.652 0 0 1 0 1.304Z" fill="#1E212C"/><path d="M116.247 49.493V39.454h5.037m-13.348.001h5.038" stroke="#1E212C" stroke-width="1.5"/><path d="M100.154 44.597v3.487a3.413 3.413 0 0 1-2.411-.998 3.402 3.402 0 0 1-.985-2.717c.19-2.115 3.396-1.895 3.396.228Z" fill="#E5E8ED"/><path d="M100.154 48.084a3.414 3.414 0 0 1-2.411-.998 3.402 3.402 0 0 1-1-2.407" stroke="#1E212C" stroke-width="1.5"/><path d="M113.492 50.666c-.882.88-2.312.88-3.194 0" stroke="#1E212C" stroke-width="1.5" stroke-linecap="round" stroke-linejoin="round"/><path d="m116.247 49.501-2.203.54" stroke="#1E212C" stroke-width="1.5" stroke-linecap="round"/><path d="m118.535 59.938.387.176a7.98 7.98 0 0 0 7.728-.617 7.952 7.952 0 0 0 3.546-6.883c-.442-12.663-3.426-30.232-16.703-28.974 0 0-13.488-3.086-18.894 9.314-5.406 12.401 1.225 18.372 3.948 19.75" stroke="#fff" stroke-width="1.5"/><path d="M123.237 42.89s-10.185-1.783-11.341-8.596c0 0-5.046 8.438-12.087 9.252" stroke="#fff" stroke-width="1.5"/><path d="M143.516 100.326v53.201l-75.492 18.524v-59.252c0-21.01 14.367-39.304 34.803-44.319a32.89 32.89 0 0 1 28.107 6.038 32.775 32.775 0 0 1 12.582 25.808Z" fill="#D7DADD"/><path d="M198.788 267.949s-65.555 34.445-130.765 15.845" stroke="#1E212C" stroke-width="1.5"/><path d="M88.283 74.889s-36.989 25.822-37.128 64.276c-.202 55.88 86.733 5.511 89.546-3.675l2.814-9.185s11.613-4.775 8.853-6.521c-2.761-1.747-84.345 15.553-84.345 15.553" stroke="#fff" stroke-width="1.5"/><path d="M130.2 74.889s21.248 15.132 29.989 54.631c0 0 14.262-19.725 19.322-27.316 5.061-7.59 9.201-2.538 9.201-2.538s5.89-8.727 10.076-5.052c4.186 3.674-7.011 66.688-47.878 74.221" stroke="#fff" stroke-width="1.5"/><path d="m147.431 124.59 85.6-42.07" stroke="#00F0B5" stroke-width="1.5"/><path d="M309.06 57.92c-23.549 0-42.64 19.059-42.64 42.569 0 23.511 19.091 42.57 42.64 42.57 23.55 0 42.641-19.059 42.641-42.57H309.06v-42.57Z" fill="#D7DADD"/><path d="M266.42 100.489c0 23.511 19.091 42.57 42.64 42.57 23.55 0 42.641-19.059 42.641-42.57" stroke="#1E212C" stroke-width="1.5"/><path d="M351.701 100.489h-42.64l34.318 25.266a42.327 42.327 0 0 0 8.322-25.266Z" fill="#1E212C"/><path d="M309.061 45.046v55.444h55.536a55.397 55.397 0 0 0-16.266-39.205 55.584 55.584 0 0 0-39.27-16.24Z" fill="#00F0B5"/><path d="M309.061 100.49h55.536" stroke="#1E212C" stroke-width="1.5"/><path fill="#D7DADD" d="M306.49 200.676h26.554v-26.51H306.49z"/><path d="m299.21 176.164 20.557-20.524 20.558 20.524H299.21Z" fill="#D7DADD"/><path fill="#9A9CA5" d="M258.677 200.714h23.015v-22.976h-23.015z"/><path d="m252.366 179.468 17.818-17.787 17.817 17.787h-35.635Z" fill="#9A9CA5"/><path fill="#1E212C" d="M221.229 200.894h15.638v-15.612h-15.638z"/><path d="m216.942 186.458 12.107-12.087 12.106 12.087h-24.213Z" fill="#1E212C"/></svg>