<svg width="43" height="38" fill="none" xmlns="http://www.w3.org/2000/svg"><path fill-rule="evenodd" clip-rule="evenodd" d="M28.714 12.515c-1.894-1.169-3.931-2.837-5.351-5.176-3.47-5.688-4.72-7.816-8.099-7.251-3.378.565-.302 9.077.855 11.863.053.13.131.275.237.433l-10.702.25c-2.84.065-5.127 2.088-5.272 4.624-.079 1.51.487 2.627 1.5 3.442-1.04.565-1.75 1.55-1.815 2.706-.013.236-.026.407-.026.486-.119 1.813.775 3.127 2.313 4.033-1.551.84-2.458 2.063-2.34 3.783.158 2.549 2.472 4.546 5.311 4.611 5.47.106 16.605.106 23.375.092V12.515h.014Zm1.841-1.445h12.384v26.694H30.555V11.069Z" fill="#D7DADD"/></svg>