<svg width="57" height="43" fill="none" xmlns="http://www.w3.org/2000/svg"><path fill-rule="evenodd" clip-rule="evenodd" d="M57 7.97C57 3.563 53.417 0 48.992 0H8.008C3.583 0 0 3.564 0 7.97V26.3c0 4.406 3.583 7.97 8.008 7.97h40.984c4.425 0 8.008-3.564 8.008-7.97V7.97Z" fill="#FC5A5A"/><path fill-rule="evenodd" clip-rule="evenodd" d="M4.854 28.313s4.558 9.14 6.754 13.513c.231.445.677.726 1.172.742.496.017.975-.247 1.222-.676a31861.6 31861.6 0 0 0 7.596-13.349l-16.744-.23Z" fill="#FC5A5A"/><path d="M31.605 22.556h1.288V12.243h-1.14l-2.162 1.205.264 1.056 1.717-.957h.033v9.009Zm11.195 0v-1.155h-4.442v-.033l.793-.759c2.08-2.095 3.401-3.63 3.401-5.544 0-1.468-.892-3.002-3.022-3.002a4.167 4.167 0 0 0-2.79 1.055l.43.99c.462-.396 1.205-.874 2.096-.874 1.47 0 1.965.973 1.965 2.013-.016 1.551-1.156 2.887-3.682 5.395l-1.057 1.056v.858H42.8Zm1.452-.528c.479.33 1.453.693 2.576.693 2.378 0 3.6-1.452 3.6-3.102 0-1.452-.991-2.392-2.213-2.656v-.033c1.222-.462 1.816-1.37 1.816-2.426 0-1.254-.875-2.458-2.823-2.458-1.057 0-2.064.396-2.593.792l.347 1.023c.43-.314 1.189-.677 1.981-.677 1.239 0 1.734.726 1.734 1.551 0 1.221-1.238 1.75-2.212 1.75h-.727v1.039h.743c1.288 0 2.543.627 2.56 2.062.016.858-.512 1.997-2.23 1.997-.924 0-1.816-.396-2.196-.644l-.363 1.09Z" fill="#fff"/><path fill-rule="evenodd" clip-rule="evenodd" d="M16.314 13.565c1.767-2.937 5.284-2.937 7.05-1.469 1.768 1.469 1.768 4.406 0 7.326-.957 1.716-3.103 3.432-5.267 4.802a3.348 3.348 0 0 1-3.583 0c-2.146-1.37-4.31-3.086-5.267-4.802-1.767-2.937-1.767-5.874 0-7.326 1.783-1.452 5.317-1.452 7.067 1.469Z" fill="#fff"/></svg>