<svg width="303" height="701" fill="none" xmlns="http://www.w3.org/2000/svg"><g opacity=".4" stroke="#00F0B5"><path d="M23.673 612.678c-44.288 30.746-97.68 43.292-160.213 37.607-31.22-2.839-57.256-13.688-78.135-32.535-20.884-18.85-36.639-45.73-47.242-80.676-21.253-70.043-51.668-147.385-91.241-232.025-19.76-42.264-25.569-77.453-17.56-105.617 8.003-28.138 29.834-49.382 65.636-63.694 71.777-28.694 138.231-50.343 199.365-64.95C-44.697 56.208 21.535 66.489 93 101.697c71.385 35.168 117.661 97.725 138.806 187.749 10.574 45.015 11.275 84.663 2.137 118.958-9.136 34.288-28.116 63.255-56.955 86.91-57.826 47.43-108.93 86.55-153.315 117.364Z"/><path d="M10.044 563.293c-35.915 24.95-79.22 35.127-129.952 30.499-25.319-2.31-46.431-11.12-63.362-26.416-16.936-15.3-29.72-37.12-38.328-65.493-17.263-56.899-41.962-119.727-74.095-188.483-16.04-34.321-20.752-62.878-14.266-85.72 6.479-22.817 24.165-40.049 53.199-51.66 58.242-23.29 112.165-40.86 161.77-52.711 49.492-11.824 103.222-3.467 161.212 25.136C124.13 177.008 161.684 227.8 178.856 300.9c8.587 36.553 9.162 68.739 1.757 96.573-7.403 27.828-22.789 51.335-46.174 70.53-46.918 38.511-88.383 70.274-124.395 95.29Z"/><path d="M1.633 532.827c-30.778 21.38-67.891 30.103-111.375 26.136-21.696-1.979-39.783-9.527-54.287-22.631-14.51-13.108-25.465-31.803-32.843-56.123-14.803-48.79-35.982-102.663-63.534-161.618-13.75-29.421-17.782-53.887-12.228-73.449 5.547-19.535 20.691-34.297 45.572-44.247 49.935-19.968 96.166-35.032 138.694-45.192C-45.952 145.569.1 152.73 49.811 177.249c49.63 24.479 81.816 68.01 96.536 130.671 7.36 31.333 7.852 58.917 1.507 82.768-6.343 23.845-19.526 43.989-39.567 60.438-40.227 33.019-75.779 60.252-106.654 81.701Z"/></g></svg>