<svg width="710" height="1367" fill="none" xmlns="http://www.w3.org/2000/svg"><g opacity=".4" stroke="#00F0B5"><path d="M136.705 808.114c.993 65.08 36.564 111.66 85.732 148.962 49.185 37.316 111.886 65.284 167.043 93.164 56.409 28.52 117.699 64.88 179.359 84.42 61.632 19.53 123.522 22.22 181.125-16.53 55.944-37.63 69.456-97.24 74.374-163.507 1.229-16.562 1.921-33.53 2.607-50.667.686-17.134 1.366-34.439 2.572-51.66 2.41-34.441 6.924-68.582 17.807-100.448 11.932-34.934 32.043-68.541 54.684-101.273 11.322-16.367 23.282-32.522 35.171-48.518 11.891-15.998 23.712-31.836 34.765-47.578 44.246-63.009 76.036-124.276 50.886-187.675-26.811-67.592-88.976-115.218-163.016-141.233-74.035-26.013-159.875-30.39-233.916-11.544-63.939 16.275-103.08 66.483-137.22 126.06-17.076 29.799-32.861 61.866-49.895 93.208-17.023 31.321-35.27 61.871-57.219 88.529-21.045 25.56-47.014 48.409-74.077 70.259-27.083 21.865-55.222 42.699-80.71 64.296-50.966 43.186-91.026 89.186-90.072 151.735Z"/><path d="M247.254 781.645c.782 51.194 28.761 87.841 67.458 117.2 38.716 29.373 88.07 51.384 131.505 73.343 44.422 22.458 92.664 51.082 141.2 66.462 48.509 15.37 97.201 17.48 142.518-13 44.003-29.603 54.64-76.493 58.511-128.659.968-13.038 1.512-26.395 2.052-39.888.54-13.491 1.076-27.117 2.025-40.678 1.898-27.121 5.453-54.012 14.026-79.114 9.4-27.519 25.241-53.989 43.069-79.763 8.915-12.888 18.332-25.61 27.693-38.204 9.362-12.596 18.669-25.064 27.37-37.457 34.836-49.612 59.828-97.804 40.052-147.662-21.093-53.18-70.008-90.661-128.285-111.137-58.272-20.475-125.837-23.92-184.112-9.087-50.297 12.802-81.096 52.299-107.974 99.203-13.444 23.461-25.868 48.7-39.283 73.384-13.403 24.661-27.773 48.723-45.061 69.72-16.577 20.132-37.03 38.128-58.34 55.332-21.329 17.22-43.477 33.618-63.545 50.622-40.125 34-71.629 70.189-70.879 119.383Z"/><path d="M327.13 762.521c.628 41.162 23.121 70.632 54.254 94.252 31.151 23.633 70.862 41.343 105.827 59.02 35.761 18.08 74.576 41.107 113.63 53.484 39.027 12.368 78.184 14.06 114.623-10.451 35.376-23.797 43.934-61.494 47.05-103.475.779-10.491 1.217-21.24 1.651-32.1.435-10.857.865-21.826 1.629-32.742 1.528-21.832 4.391-43.485 11.295-63.701 7.57-22.161 20.326-43.474 34.677-64.221 7.177-10.375 14.756-20.615 22.29-30.751 7.536-10.138 15.025-20.172 22.028-30.145 28.039-39.933 48.12-78.678 32.225-118.752-16.963-42.767-56.305-72.918-103.192-89.393-46.884-16.473-101.244-19.244-148.128-7.31-40.441 10.293-65.212 42.05-86.842 79.797-10.82 18.882-20.815 39.189-31.616 59.061-10.788 19.851-22.359 39.222-36.279 56.129-13.348 16.211-29.815 30.7-46.968 44.548-17.172 13.864-34.991 27.056-51.142 40.742-32.293 27.363-57.615 56.464-57.012 96.008Z"/></g></svg>