<svg width="445" height="889" fill="none" xmlns="http://www.w3.org/2000/svg"><g opacity=".4" stroke="#00F0B5"><path d="M-118.684 690.511c26.012 20.683 55.925 21.738 86.63 14.395 30.73-7.349 62.142-23.081 91.12-35.872 29.64-13.084 63.917-25.529 91.665-43.585 27.723-18.041 48.828-41.622 52.186-76.92 3.26-34.26-15.88-58.905-40.514-82.37-6.156-5.864-12.647-11.647-19.211-17.486-6.562-5.837-13.197-11.731-19.629-17.806-12.862-12.149-24.933-25.045-34.033-39.734-9.976-16.103-16.76-35.01-22.368-54.618-2.806-9.805-5.32-19.792-7.791-29.697-2.473-9.907-4.904-19.73-7.546-29.217-10.582-37.997-24.49-70.358-57.627-80.951-35.388-11.312-74.37-2.194-108.687 18.653-34.314 20.844-63.901 53.38-80.471 88.78-14.282 30.513-7.147 62.24 5.352 95.104 6.253 16.442 13.816 33.091 20.7 50.034 6.875 16.921 13.053 34.088 16.484 51.464 3.29 16.662 3.902 34.389 3.762 52.209-.139 17.845-1.029 35.735-.756 52.843.545 34.206 5.749 64.908 30.734 84.774Z"/><path d="M-93.253 638.134c20.445 16.256 43.958 17.09 68.117 11.313 24.181-5.784 48.9-18.163 71.724-28.238 23.347-10.305 50.318-20.098 72.155-34.308 21.814-14.195 38.402-32.737 41.043-60.485 2.561-26.922-12.474-46.295-31.865-64.766-4.845-4.615-9.955-9.167-15.124-13.765-5.166-4.596-10.392-9.237-15.457-14.021-10.13-9.568-19.642-19.729-26.814-31.306-7.862-12.691-13.205-27.589-17.623-43.03-2.209-7.722-4.188-15.587-6.135-23.386-1.947-7.8-3.86-15.533-5.94-23.001-8.332-29.919-19.271-55.34-45.302-63.661-27.822-8.894-58.482-1.729-85.486 14.675-27 16.401-50.28 42.004-63.316 69.856-11.226 23.983-5.623 48.927 4.215 74.797 4.924 12.946 10.875 26.046 16.298 39.392 5.414 13.324 10.281 26.849 12.984 40.539 2.592 13.13 3.075 27.095 2.965 41.128-.11 14.058-.812 28.133-.597 41.603.429 26.929 4.528 51.056 24.158 66.664Z"/><path d="M-74.878 600.289c16.421 13.057 35.31 13.733 54.738 9.086 19.451-4.652 39.335-14.609 57.71-22.721 18.8-8.298 40.495-16.174 58.062-27.605 17.543-11.416 30.868-26.317 32.99-48.611 2.057-21.619-10.014-37.182-25.617-52.045-3.898-3.713-8.01-7.376-12.17-11.077-4.157-3.699-8.363-7.435-12.441-11.287-8.155-7.703-15.819-15.888-21.598-25.216-6.335-10.226-10.64-22.227-14.196-34.657-1.778-6.217-3.372-12.55-4.938-18.826-1.567-6.279-3.107-12.501-4.78-18.51-6.707-24.084-15.5-44.491-36.395-51.17-22.358-7.147-47.005-1.392-68.724 11.802-21.715 13.191-40.439 33.783-50.923 56.182-9.018 19.265-4.522 39.308 3.395 60.125 3.963 10.419 8.75 20.954 13.117 31.702 4.358 10.726 8.278 21.619 10.456 32.647 2.088 10.577 2.476 21.825 2.388 33.121-.089 11.321-.654 22.641-.48 33.482.345 21.671 3.645 41.046 19.406 53.578Z"/></g></svg>