<svg width="186" height="427" fill="none" xmlns="http://www.w3.org/2000/svg"><g opacity=".4" stroke="#00F0B5"><path d="M371.251 319.49c-6.86 31.183-25.001 58.135-54.471 80.854-14.698 11.332-30.36 17.093-46.996 17.312-16.643.219-34.302-5.109-52.985-16.025-37.504-21.911-81.937-43.302-133.296-64.174-25.62-10.413-42.287-23.355-50.128-38.777-7.829-15.398-6.913-33.377 2.875-54.005 19.656-41.423 39.837-77.634 60.54-108.633 20.638-30.903 53.557-53.116 98.818-66.607 45.174-13.465 90.475-4.926 135.938 25.69 22.735 15.309 39.002 32.254 48.836 50.824 9.832 18.564 13.248 38.779 10.245 60.662-6.033 43.953-12.492 81.579-19.376 112.879Z"/><path d="M345.405 303.498c-5.554 25.285-20.261 47.138-44.17 65.558-11.917 9.182-24.614 13.846-38.1 14.018-13.493.171-27.819-4.152-42.984-13.013-30.467-17.802-66.56-35.182-108.276-52.143-20.8-8.457-34.314-18.958-40.671-31.45-6.345-12.467-5.615-27.029 2.318-43.751 15.945-33.615 32.318-62.996 49.116-88.147 16.733-25.055 43.436-43.063 80.17-53.994 36.648-10.905 73.408-3.968 110.318 20.886 18.458 12.429 31.661 26.179 39.644 41.239 7.98 15.054 10.759 31.444 8.33 49.186-4.884 35.674-10.116 66.21-15.695 91.611Z"/><path d="M329.459 293.634c-4.757 21.66-17.357 40.384-37.846 56.17-10.207 7.864-21.079 11.856-32.625 12.003-11.553.147-23.823-3.555-36.818-11.148-26.127-15.265-57.077-30.169-92.847-44.713-17.827-7.248-29.397-16.242-34.837-26.931-5.427-10.664-4.807-23.126 1.99-37.451 13.67-28.819 27.707-54.008 42.107-75.569 14.336-21.466 37.216-36.899 68.701-46.267 31.399-9.343 62.896-3.401 94.529 17.899 15.819 10.652 27.129 22.433 33.968 35.333 6.834 12.893 9.216 26.932 7.135 42.131-4.187 30.586-8.673 56.766-13.457 78.543Z"/></g></svg>