<svg width="556" height="996" fill="none" xmlns="http://www.w3.org/2000/svg"><g opacity=".4" stroke="#00F0B5"><path d="M-62.521 928.865c42.33 15.158 81.097 3.467 117.19-19.295 36.112-22.775 69.455-56.571 100.935-85.523 32.196-29.612 70.631-60.455 98.269-95.627 27.62-35.15 44.38-74.537 33.304-121.204-10.755-45.31-46.019-68.528-87.734-87.821-10.425-4.822-21.244-9.394-32.177-14.005-10.931-4.61-21.976-9.259-32.839-14.228-21.726-9.937-42.756-21.168-60.764-35.978-19.742-16.235-36.63-37.446-52.328-60.073-7.85-11.314-15.407-22.991-22.876-34.58-7.471-11.592-14.854-23.098-22.362-34.082-30.055-43.979-61.965-79.391-109.051-78.52-50.237.93-96.161 29.582-130.994 71.19-34.831 41.606-58.524 96.111-64.316 148.619-4.998 45.304 17.969 82.819 48.251 119.411 15.148 18.305 32.071 36.316 48.236 54.977 16.149 18.643 31.508 37.897 43.445 58.608 11.446 19.859 19.935 42.246 27.508 65.09 7.58 22.868 14.228 46.146 22.02 67.905 15.578 43.506 35.611 80.573 76.283 95.136Z"/><path d="M-52.79 850.828c33.286 11.919 63.773 2.731 92.176-15.181 28.422-17.925 54.664-44.525 79.455-67.326 25.358-23.322 55.607-47.594 77.36-75.278 21.736-27.661 34.913-58.64 26.202-95.34-8.455-35.623-36.178-53.885-69.016-69.073-8.207-3.795-16.724-7.395-25.332-11.026-8.606-3.629-17.303-7.289-25.858-11.202-17.11-7.826-33.677-16.674-47.866-28.343-15.555-12.792-28.857-29.502-41.22-47.32C6.93 421.829.979 412.635-4.902 403.51c-5.882-9.127-11.694-18.184-17.603-26.831-23.666-34.629-48.76-62.46-85.769-61.775-39.514.731-75.645 23.267-103.058 56.013-27.412 32.742-46.058 75.637-50.616 116.958-3.93 35.624 14.127 65.132 37.967 93.939 11.926 14.411 25.244 28.585 37.976 43.283 12.716 14.68 24.815 29.846 34.218 46.162 9.017 15.645 15.704 33.279 21.666 51.267 5.971 18.012 11.203 36.33 17.337 53.462 12.264 34.251 28.023 63.391 59.996 74.84Z"/><path d="M-45.753 794.445c26.75 9.578 51.255 2.198 74.102-12.21 22.866-14.421 43.976-35.82 63.935-54.176 20.416-18.777 44.751-38.303 62.253-60.577 17.484-22.25 28.072-47.154 21.07-76.653-6.794-28.624-29.068-43.305-55.493-55.527-6.603-3.053-13.456-5.95-20.385-8.872-6.926-2.921-13.928-5.868-20.815-9.018-13.773-6.299-27.116-13.425-38.547-22.825-12.53-10.304-23.242-23.762-33.193-38.105-4.976-7.173-9.767-14.574-14.5-21.918-4.735-7.347-9.412-14.635-14.167-21.594-19.05-27.873-39.22-50.226-68.948-49.676-31.765.588-60.82 18.706-82.873 45.047-22.05 26.339-37.049 60.846-40.716 94.083-3.158 28.631 11.352 52.353 30.536 75.534 9.599 11.599 20.312 23 30.564 34.835 10.236 11.817 19.978 24.029 27.551 37.169 7.263 12.601 12.647 26.801 17.446 41.281 4.808 14.503 9.016 29.238 13.953 43.026 9.87 27.564 22.54 50.978 48.227 60.176Z"/></g></svg>