<svg width="176" height="44" fill="none" xmlns="http://www.w3.org/2000/svg"><path d="M167.609 43.433H7.876C3.544 43.433 0 39.89 0 35.563V7.87C0 3.541 3.544 0 7.876 0h159.733c4.331 0 7.875 3.542 7.875 7.87v27.693c0 4.328-3.544 7.87-7.875 7.87Z" fill="#FC5A5A"/><path d="M49.321 17.115c0-.492-.049-.984-.098-1.476-.148-2.115-.394-4.525-1.772-6.197-1.181-1.427-3.052-1.771-4.775-1.968-2.215-.246-4.43-.393-6.645-.492-4.529-.197-9.008-.098-13.537.05-2.313.049-4.627.098-6.94.295-2.855.245-5.76.639-7.089 3.492-1.181 2.558-1.033 5.755-1.033 8.51 0 2.459 0 4.918.098 7.377.148 3.198.295 7.33 3.741 8.707 1.821.737 4.037.934 6.005 1.033 2.068.147 4.135.098 6.252.147 4.38.05 8.713-.098 13.094-.148 3.051-.049 6.153-.098 9.057-1.082 2.51-.836 3.15-3.541 3.495-5.902.344-2.312.246-4.722.246-7.034-.05-1.869-.05-3.59-.099-5.312Z" fill="#fff"/><path d="M34.998 21.69c-3.643-2.164-7.236-4.23-10.879-6.394v12.74c3.643-2.116 7.236-4.23 10.879-6.346Z" fill="#FC5A5A"/><path d="M65.16 23.256c0-.632-.225-1.12-.673-1.462-.442-.342-1.242-.688-2.402-1.037-1.16-.35-2.083-.738-2.769-1.166-1.311-.823-1.967-1.896-1.967-3.22 0-1.16.471-2.114 1.414-2.865.949-.75 2.178-1.126 3.687-1.126 1.002 0 1.895.184 2.68.553.784.369 1.4.896 1.848 1.58a4.02 4.02 0 0 1 .672 2.263h-2.49c0-.75-.238-1.337-.713-1.758-.468-.429-1.14-.643-2.016-.643-.818 0-1.454.175-1.908.524-.449.349-.673.836-.673 1.462 0 .527.244.968.732 1.324.488.349 1.292.691 2.412 1.027 1.12.33 2.02.708 2.699 1.136.679.422 1.176.909 1.493 1.462.316.547.474 1.189.474 1.927 0 1.198-.461 2.153-1.384 2.864-.916.705-2.161 1.057-3.737 1.057-1.041 0-2-.19-2.877-.573-.87-.388-1.548-.922-2.036-1.6-.481-.678-.722-1.469-.722-2.37h2.501c0 .816.27 1.448.811 1.896.54.448 1.315.672 2.323.672.87 0 1.523-.175 1.958-.524.441-.356.662-.823.662-1.403Zm15.223-10.678v9.611c0 1.528-.49 2.74-1.472 3.636-.976.889-2.278 1.333-3.906 1.333-1.647 0-2.955-.438-3.924-1.314-.969-.882-1.454-2.104-1.454-3.665v-9.601h2.492v9.621c0 .962.244 1.696.731 2.203.488.507 1.207.76 2.156.76 1.924 0 2.886-1.013 2.886-3.042v-9.543h2.492Zm2.68 14.382V12.578h4.933c1.628 0 2.867.326 3.717.978.85.652 1.275 1.624 1.275 2.915 0 .658-.178 1.25-.534 1.778-.356.527-.876.935-1.562 1.225.778.21 1.378.609 1.8 1.195.428.58.642 1.278.642 2.094 0 1.35-.435 2.388-1.305 3.112-.863.725-2.102 1.087-3.717 1.087h-5.25Zm2.5-6.49v4.495h2.779c.784 0 1.397-.194 1.838-.583.442-.388.663-.928.663-1.62 0-1.495-.765-2.259-2.294-2.291h-2.985Zm0-1.837h2.452c.778 0 1.385-.174 1.82-.523.441-.356.662-.857.662-1.502 0-.711-.204-1.225-.613-1.541-.402-.316-1.031-.474-1.888-.474h-2.432v4.04Zm17.795 4.623c0-.632-.224-1.12-.672-1.462-.441-.342-1.242-.688-2.402-1.037-1.16-.35-2.083-.738-2.768-1.166-1.312-.823-1.968-1.896-1.968-3.22 0-1.16.472-2.114 1.414-2.865.95-.75 2.178-1.126 3.688-1.126 1.001 0 1.895.184 2.679.553.784.369 1.4.896 1.848 1.58a4.01 4.01 0 0 1 .673 2.263h-2.492c0-.75-.237-1.337-.711-1.758-.468-.429-1.141-.643-2.017-.643-.817 0-1.453.175-1.908.524-.448.349-.672.836-.672 1.462 0 .527.244.968.731 1.324.488.349 1.292.691 2.412 1.027 1.121.33 2.02.708 2.699 1.136.679.422 1.177.909 1.493 1.462.316.547.475 1.189.475 1.927 0 1.198-.462 2.153-1.384 2.864-.917.705-2.162 1.057-3.737 1.057-1.042 0-2-.19-2.877-.573-.87-.388-1.549-.922-2.037-1.6-.48-.678-.721-1.469-.721-2.37h2.5c0 .816.271 1.448.811 1.896.54.448 1.315.672 2.324.672.87 0 1.522-.175 1.957-.524.442-.356.662-.823.662-1.403Zm15.68-.978c-.145 1.535-.712 2.733-1.701 3.596-.988.856-2.303 1.284-3.944 1.284-1.147 0-2.159-.27-3.035-.81-.87-.546-1.542-1.32-2.017-2.321-.475-1.001-.722-2.164-.741-3.487v-1.344c0-1.357.24-2.552.721-3.586.481-1.034 1.17-1.83 2.066-2.39.903-.56 1.945-.84 3.124-.84 1.589 0 2.867.431 3.836 1.294.969.863 1.532 2.081 1.691 3.655h-2.492c-.118-1.034-.421-1.778-.909-2.232-.481-.461-1.19-.692-2.126-.692-1.087 0-1.924.398-2.511 1.195-.58.79-.876 1.953-.889 3.487v1.275c0 1.554.276 2.74.83 3.556.56.817 1.377 1.225 2.452 1.225.982 0 1.72-.22 2.214-.662.494-.441.808-1.175.939-2.203h2.492Zm7.533-.859h-2.788v5.542h-2.501V12.578h5.061c1.661 0 2.943.372 3.846 1.116.903.744 1.354 1.82 1.354 3.23 0 .962-.234 1.768-.702 2.42-.461.646-1.107 1.143-1.937 1.492l3.233 5.996v.129h-2.68l-2.886-5.542Zm-2.788-2.006h2.57c.844 0 1.503-.21 1.977-.632.475-.428.712-1.01.712-1.748 0-.77-.221-1.367-.662-1.788-.435-.422-1.088-.64-1.958-.652h-2.639v4.82Zm12.773 7.547h-2.492V12.578h2.492v14.384Zm3.074 0V12.578h4.933c1.628 0 2.867.326 3.717.978.851.652 1.276 1.624 1.276 2.915 0 .658-.178 1.25-.534 1.778-.356.527-.877.935-1.562 1.225.777.21 1.377.609 1.799 1.195.428.58.643 1.278.643 2.094 0 1.35-.435 2.388-1.305 3.112-.864.725-2.103 1.087-3.717 1.087h-5.25Zm2.501-6.49v4.495h2.778c.784 0 1.397-.194 1.839-.583.442-.388.662-.928.662-1.62 0-1.495-.764-2.259-2.293-2.291h-2.986Zm0-1.837h2.452c.778 0 1.384-.174 1.819-.523.442-.356.662-.857.662-1.502 0-.711-.204-1.225-.613-1.541-.402-.316-1.031-.474-1.888-.474h-2.432v4.04Zm18.685 1.907h-5.912v4.425h6.91v1.996h-9.411V12.578h9.342v2.015h-6.841v3.97h5.912v1.977Z" fill="#fff"/></svg>